# xmcd
#
# Track frame offsets:
#	150
#	15980
#	41116
#	72290
#	91870
#	109727
#	144059
#	172226
#
# Disc length: 2687 seconds
#
# Revision: 1
# Processed by: cddbd v1.5.1PL2 Copyright (c) Steve Scherf et al.
# Submitted via: EasyCDDAExtractor 9.0.0.1
#
DISCID=610a7d08
DTITLE=Kiss - De Montfort Hall Leicester 24-10-83 Disc 2
DYEAR=1983
DGENRE=Hard Rock
TTITLE0=I Love It Loud 
TTITLE1=I Still Love You
TTITLE2=Eric Solo
TTITLE3=Young And Wasted
TTITLE4=Love Gun 
TTITLE5=Black Diamond
TTITLE6=Lick It Up 
TTITLE7=Rock And Roll All Nite
EXTD=
EXTT0=
EXTT1=
EXTT2=
EXTT3=
EXTT4=
EXTT5=
EXTT6=
EXTT7=
PLAYORDER=
